<?xml version="1.0" encoding="utf-8"?>
<!-- Generator: Adobe Illustrator 16.0.0, SVG Export Plug-In . SVG Version: 6.00 Build 0)  -->
<!DOCTYPE svg PUBLIC "-//W3C//DTD SVG 1.1//EN" "http://www.w3.org/Graphics/SVG/1.1/DTD/svg11.dtd">
<svg version="1.1" id="Capa_1" xmlns="http://www.w3.org/2000/svg" xmlns:xlink="http://www.w3.org/1999/xlink" x="0px" y="0px"
	 width="25px" height="25px" viewBox="243.5 243.5 25 25" enable-background="new 243.5 243.5 25 25" xml:space="preserve">
<g>
	<g>
		<path fill="#EDEDED" d="M264.764,247.235c-2.341-2.342-5.451-3.631-8.764-3.631s-6.423,1.289-8.765,3.631
			s-3.631,5.453-3.631,8.765s1.289,6.423,3.631,8.764c2.342,2.347,5.453,3.633,8.765,3.633s6.423-1.286,8.764-3.633
			c2.346-2.341,3.633-5.451,3.633-8.764S267.11,249.577,264.764,247.235z M263.768,263.767c-2.077,2.078-4.836,3.223-7.768,3.223
			s-5.693-1.145-7.769-3.223c-4.283-4.281-4.283-11.252,0-15.537c2.076-2.076,4.837-3.219,7.769-3.219s5.69,1.143,7.768,3.219
			C268.053,252.515,268.053,259.486,263.768,263.767z"/>
		<path fill="#EDEDED" d="M261.463,250.537c-0.277-0.277-0.72-0.277-0.995,0L256,255.003l-4.466-4.465
			c-0.277-0.277-0.719-0.277-0.997,0c-0.276,0.277-0.276,0.719,0,0.996l4.466,4.466l-4.466,4.468c-0.276,0.275-0.276,0.718,0,0.996
			c0.137,0.134,0.318,0.207,0.497,0.207c0.177,0,0.359-0.068,0.495-0.207l4.466-4.468l4.466,4.468
			c0.137,0.134,0.32,0.207,0.495,0.207c0.184,0,0.359-0.068,0.496-0.207c0.275-0.276,0.275-0.721,0-0.996L256.996,256l4.467-4.466
			C261.74,251.257,261.74,250.815,261.463,250.537z"/>
	</g>
</g>
</svg>
